<svg xmlns="http://www.w3.org/2000/svg" xmlns:xlink="http://www.w3.org/1999/xlink" width="400" zoomAndPan="magnify" viewBox="0 0 300 299.999988" height="400" preserveAspectRatio="xMidYMid meet" version="1.0"><defs><clipPath id="046711e58a"><path d="M 0 6.347656 L 64 6.347656 L 64 89 L 0 89 Z M 0 6.347656 " clip-rule="nonzero"/></clipPath><clipPath id="f7e02ebfe5"><path d="M 2.539062 86.695312 L 2.539062 88.980469 L 61.503906 88.980469 L 61.503906 71.957031 L 27.492188 71.957031 C 30.359375 63.648438 40.960938 59.601562 48.585938 54.925781 C 56.535156 50.046875 63.9375 42.988281 63.9375 31.671875 C 63.929688 16.207031 50.242188 6.347656 33.121094 6.347656 C 13.914062 6.347656 0 18.910156 0 36.765625 L 18.324219 39.570312 C 18.433594 29.710938 23.074219 22.957031 32.570312 22.957031 C 39.75 22.957031 43.617188 26.90625 43.617188 31.992188 C 43.617188 37.804688 38.644531 41.128906 29.59375 46.734375 C 9.933594 58.984375 2.539062 67.910156 2.539062 86.695312 " clip-rule="nonzero"/></clipPath><clipPath id="f308eab7b6"><path d="M 0 0.347656 L 64 0.347656 L 64 83 L 0 83 Z M 0 0.347656 " clip-rule="nonzero"/></clipPath><clipPath id="6c2f25f327"><path d="M 2.539062 80.695312 L 2.539062 82.980469 L 61.503906 82.980469 L 61.503906 65.957031 L 27.492188 65.957031 C 30.359375 57.648438 40.960938 53.601562 48.585938 48.925781 C 56.535156 44.046875 63.9375 36.988281 63.9375 25.671875 C 63.929688 10.207031 50.242188 0.347656 33.121094 0.347656 C 13.914062 0.347656 0 12.910156 0 30.765625 L 18.324219 33.570312 C 18.433594 23.710938 23.074219 16.957031 32.570312 16.957031 C 39.75 16.957031 43.617188 20.90625 43.617188 25.992188 C 43.617188 31.804688 38.644531 35.128906 29.59375 40.734375 C 9.933594 52.984375 2.539062 61.910156 2.539062 80.695312 " clip-rule="nonzero"/></clipPath><clipPath id="4cd0e0c777"><rect x="0" width="64" y="0" height="83"/></clipPath><clipPath id="06a15f500a"><path d="M 71.335938 6.347656 L 150.207031 6.347656 L 150.207031 89 L 71.335938 89 Z M 71.335938 6.347656 " clip-rule="nonzero"/></clipPath><clipPath id="66ac0117ce"><path d="M 110.15625 88.984375 C 121.238281 88.984375 129.269531 85.023438 135.058594 77.394531 L 135.566406 77.394531 C 135.875 80.648438 134.835938 84 135.144531 87.253906 L 150.203125 87.253906 L 150.203125 45.277344 L 113.71875 45.277344 L 113.71875 59.914062 L 132.214844 59.914062 C 129.976562 67.84375 122.460938 72.011719 113.519531 72.011719 C 104.265625 72.011719 90.140625 67.027344 90.140625 48.125 C 90.140625 32.671875 99.492188 23.320312 111.886719 23.320312 C 122.5625 23.320312 128.453125 30.234375 132.113281 38.5625 L 148.886719 31.859375 C 143.703125 17.53125 130.492188 6.347656 111.886719 6.347656 C 90.4375 6.347656 71.335938 21.191406 71.335938 47.617188 C 71.335938 71.804688 87.492188 88.984375 110.15625 88.984375 " clip-rule="nonzero"/></clipPath><clipPath id="9b63abd04f"><path d="M 0.335938 0.347656 L 79.207031 0.347656 L 79.207031 83 L 0.335938 83 Z M 0.335938 0.347656 " clip-rule="nonzero"/></clipPath><clipPath id="b899a20628"><path d="M 39.15625 82.984375 C 50.238281 82.984375 58.269531 79.023438 64.058594 71.394531 L 64.566406 71.394531 C 64.875 74.648438 63.835938 78 64.144531 81.253906 L 79.203125 81.253906 L 79.203125 39.277344 L 42.71875 39.277344 L 42.71875 53.914062 L 61.214844 53.914062 C 58.976562 61.84375 51.460938 66.011719 42.519531 66.011719 C 33.265625 66.011719 19.140625 61.027344 19.140625 42.125 C 19.140625 26.671875 28.492188 17.320312 40.886719 17.320312 C 51.5625 17.320312 57.453125 24.234375 61.113281 32.5625 L 77.886719 25.859375 C 72.703125 11.53125 59.492188 0.347656 40.886719 0.347656 C 19.4375 0.347656 0.335938 15.191406 0.335938 41.617188 C 0.335938 65.804688 16.492188 82.984375 39.15625 82.984375 " clip-rule="nonzero"/></clipPath><clipPath id="e0c9e2ce4b"><rect x="0" width="80" y="0" height="83"/></clipPath><clipPath id="f411c6850a"><path d="M 157.375 4.410156 L 241.242188 4.410156 L 241.242188 90.671875 L 157.375 90.671875 Z M 157.375 4.410156 " clip-rule="nonzero"/></clipPath><clipPath id="71173e55d1"><path d="M 199.375 90.332031 C 222.65625 90.332031 241.089844 72.632812 241.089844 47.5625 C 241.089844 22.285156 222.445312 4.691406 199.375 4.691406 C 176.40625 4.691406 157.65625 22.074219 157.65625 47.5625 C 157.65625 73.050781 176.40625 90.332031 199.375 90.332031 M 199.476562 72.734375 C 186.945312 72.734375 177.253906 62.515625 177.253906 47.5625 C 177.253906 32.917969 186.730469 22.277344 199.476562 22.277344 C 212.640625 22.277344 221.496094 33.550781 221.496094 47.5625 C 221.496094 61.992188 212.332031 72.734375 199.476562 72.734375 " clip-rule="nonzero"/></clipPath><clipPath id="2ebbeb647e"><path d="M 0.441406 0.640625 L 84.199219 0.640625 L 84.199219 86.558594 L 0.441406 86.558594 Z M 0.441406 0.640625 " clip-rule="nonzero"/></clipPath><clipPath id="1f0ee3e4e1"><path d="M 42.375 86.332031 C 65.65625 86.332031 84.089844 68.632812 84.089844 43.5625 C 84.089844 18.285156 65.445312 0.691406 42.375 0.691406 C 19.40625 0.691406 0.65625 18.074219 0.65625 43.5625 C 0.65625 69.050781 19.40625 86.332031 42.375 86.332031 M 42.476562 68.734375 C 29.945312 68.734375 20.253906 58.515625 20.253906 43.5625 C 20.253906 28.917969 29.730469 18.277344 42.476562 18.277344 C 55.640625 18.277344 64.496094 29.550781 64.496094 43.5625 C 64.496094 57.992188 55.332031 68.734375 42.476562 68.734375 " clip-rule="nonzero"/></clipPath><clipPath id="8355a262bc"><rect x="0" width="85" y="0" height="87"/></clipPath><clipPath id="449de20923"><path d="M 206.097656 90.273438 L 251.628906 90.273438 L 251.628906 124.621094 L 206.097656 124.621094 Z M 206.097656 90.273438 " clip-rule="nonzero"/></clipPath><clipPath id="063f4ad695"><path d="M 212.964844 90.484375 C 215.480469 93.847656 218.664062 97.730469 220.570312 99.929688 L 217.355469 102.726562 L 217.355469 98.457031 L 219.296875 98.457031 L 220.570312 99.929688 C 223.871094 103.726562 227.140625 108.714844 229.421875 113.066406 L 225.644531 115.050781 L 229.421875 113.066406 C 229.644531 113.496094 229.851562 113.898438 230.023438 114.246094 C 230.183594 114.582031 230.320312 114.847656 230.457031 115.101562 C 230.816406 115.796875 230.980469 115.976562 231.015625 116.019531 C 230.964844 115.964844 230.828125 115.882812 230.742188 115.863281 C 230.75 115.863281 231.089844 115.941406 232.007812 115.785156 C 236.371094 115.078125 242.46875 108.636719 242.722656 104.46875 L 246.984375 104.734375 L 242.722656 104.46875 C 242.777344 103.582031 242.714844 103.195312 242.683594 103.101562 C 242.757812 103.332031 243.144531 103.785156 243.511719 103.871094 C 243.511719 103.871094 243.46875 103.863281 243.375 103.855469 C 243.347656 103.855469 243.316406 103.855469 243.28125 103.855469 L 243.367188 99.585938 L 243.289062 103.855469 C 243.46875 103.855469 243.5625 103.835938 243.554688 103.847656 C 240.988281 104.25 231.75 109.707031 231.605469 117.234375 C 231.605469 117.445312 231.605469 117.660156 231.613281 117.875 L 223.085938 118.257812 C 223.066406 117.855469 223.058594 117.464844 223.066406 117.070312 C 223.324219 103.574219 237.679688 96.121094 242.226562 95.410156 C 242.578125 95.359375 242.988281 95.316406 243.441406 95.328125 C 243.597656 95.328125 243.75 95.335938 243.90625 95.34375 C 244.417969 95.378906 244.921875 95.445312 245.4375 95.558594 C 248.394531 96.242188 250.125 98.285156 250.832031 100.5625 C 251.339844 102.1875 251.3125 103.835938 251.242188 104.992188 C 250.722656 113.484375 241.320312 122.902344 233.382812 124.203125 L 232.699219 119.996094 L 233.390625 124.203125 C 231.828125 124.460938 230.253906 124.519531 228.738281 124.152344 C 227.175781 123.777344 225.917969 123.007812 224.925781 121.988281 C 223.976562 121.011719 223.34375 119.902344 222.90625 119.070312 C 222.726562 118.738281 222.554688 118.386719 222.390625 118.070312 C 222.210938 117.710938 222.042969 117.378906 221.863281 117.035156 C 219.828125 113.152344 216.917969 108.738281 214.121094 105.523438 L 217.335938 102.726562 L 217.335938 106.992188 L 215.394531 106.992188 L 214.121094 105.523438 C 212.085938 103.179688 208.773438 99.132812 206.132812 95.601562 Z M 212.964844 90.484375 " clip-rule="nonzero"/></clipPath><clipPath id="515cf8b4f7"><path d="M 0.0976562 0.320312 L 45.519531 0.320312 L 45.519531 34.621094 L 0.0976562 34.621094 Z M 0.0976562 0.320312 " clip-rule="nonzero"/></clipPath><clipPath id="669ad69335"><path d="M 6.964844 0.484375 C 9.480469 3.847656 12.664062 7.730469 14.570312 9.929688 L 11.355469 12.726562 L 11.355469 8.457031 L 13.296875 8.457031 L 14.570312 9.929688 C 17.871094 13.726562 21.140625 18.714844 23.421875 23.066406 L 19.644531 25.050781 L 23.421875 23.066406 C 23.644531 23.496094 23.851562 23.898438 24.023438 24.246094 C 24.183594 24.582031 24.320312 24.847656 24.457031 25.101562 C 24.816406 25.796875 24.980469 25.976562 25.015625 26.019531 C 24.964844 25.964844 24.828125 25.882812 24.742188 25.863281 C 24.75 25.863281 25.089844 25.941406 26.007812 25.785156 C 30.371094 25.078125 36.46875 18.636719 36.722656 14.46875 L 40.984375 14.734375 L 36.722656 14.46875 C 36.777344 13.582031 36.714844 13.195312 36.683594 13.101562 C 36.757812 13.332031 37.144531 13.785156 37.511719 13.871094 C 37.511719 13.871094 37.46875 13.863281 37.375 13.855469 C 37.347656 13.855469 37.316406 13.855469 37.28125 13.855469 L 37.367188 9.585938 L 37.289062 13.855469 C 37.46875 13.855469 37.5625 13.835938 37.554688 13.847656 C 34.988281 14.25 25.75 19.707031 25.605469 27.234375 C 25.605469 27.445312 25.605469 27.660156 25.613281 27.875 L 17.085938 28.257812 C 17.066406 27.855469 17.058594 27.464844 17.066406 27.070312 C 17.324219 13.574219 31.679688 6.121094 36.226562 5.410156 C 36.578125 5.359375 36.988281 5.316406 37.441406 5.328125 C 37.597656 5.328125 37.75 5.335938 37.90625 5.34375 C 38.417969 5.378906 38.921875 5.445312 39.4375 5.558594 C 42.394531 6.242188 44.125 8.285156 44.832031 10.5625 C 45.339844 12.1875 45.3125 13.835938 45.242188 14.992188 C 44.722656 23.484375 35.320312 32.902344 27.382812 34.203125 L 26.699219 29.996094 L 27.390625 34.203125 C 25.828125 34.460938 24.253906 34.519531 22.738281 34.152344 C 21.175781 33.777344 19.917969 33.007812 18.925781 31.988281 C 17.976562 31.011719 17.34375 29.902344 16.90625 29.070312 C 16.726562 28.738281 16.554688 28.386719 16.390625 28.070312 C 16.210938 27.710938 16.042969 27.378906 15.863281 27.035156 C 13.828125 23.152344 10.917969 18.738281 8.121094 15.523438 L 11.335938 12.726562 L 11.335938 16.992188 L 9.394531 16.992188 L 8.121094 15.523438 C 6.085938 13.179688 2.773438 9.132812 0.132812 5.601562 Z M 6.964844 0.484375 " clip-rule="nonzero"/></clipPath><clipPath id="7ef1eca0d2"><rect x="0" width="46" y="0" height="35"/></clipPath><clipPath id="669531a30e"><path d="M 165.363281 90.671875 L 198.910156 90.671875 L 198.910156 134.207031 L 165.363281 134.207031 Z M 165.363281 90.671875 " clip-rule="nonzero"/></clipPath><clipPath id="5d1963eb4a"><path d="M 192.128906 95.539062 C 190.460938 98.15625 188.75 100.476562 186.945312 102.90625 C 186.21875 103.878906 185.484375 104.882812 184.703125 105.949219 L 181.25 103.445312 L 185.515625 103.445312 L 185.515625 104.914062 L 184.609375 106.070312 C 183.636719 107.328125 182.625 108.851562 181.460938 110.621094 C 180.289062 112.398438 178.972656 114.410156 177.5625 116.214844 C 177.125 116.769531 176.664062 117.328125 176.195312 117.867188 C 175.886719 118.214844 175.585938 118.53125 175.328125 118.816406 C 175.089844 119.082031 174.886719 119.292969 174.707031 119.492188 C 174.253906 119.996094 174.132812 120.191406 174.105469 120.242188 C 174.183594 120.097656 174.234375 119.765625 174.183594 119.585938 C 174.191406 119.601562 174.269531 119.867188 174.652344 120.441406 C 176.871094 123.714844 185.191406 126.691406 189.390625 125.296875 C 190.265625 125.007812 190.617188 124.800781 190.699219 124.734375 C 190.445312 124.929688 190.085938 125.65625 190.222656 126.164062 C 190.222656 126.164062 190.222656 126.152344 190.214844 126.144531 C 190.203125 126.136719 190.195312 126.101562 190.179688 126.058594 L 194.105469 124.382812 L 190.179688 126.058594 C 190.28125 126.300781 190.375 126.417969 190.359375 126.402344 C 188.949219 124.445312 180.015625 118.644531 172.636719 121.800781 C 172.574219 121.824219 172.523438 121.851562 172.464844 121.878906 L 168.984375 114.085938 C 169.085938 114.042969 169.179688 114 169.28125 113.957031 C 181.660156 108.671875 194.488281 117.550781 197.277344 121.40625 C 197.519531 121.742188 197.800781 122.183594 198.03125 122.707031 C 198.132812 122.953125 198.226562 123.203125 198.3125 123.460938 C 198.363281 123.621094 198.417969 123.785156 198.460938 123.949219 C 199.332031 127.199219 198.015625 129.824219 195.996094 131.421875 C 194.695312 132.457031 193.15625 133.039062 192.070312 133.398438 L 190.726562 129.351562 L 192.070312 133.398438 C 184.234375 136 171.933594 131.664062 167.570312 125.230469 L 171.105469 122.835938 L 167.570312 125.230469 C 166.851562 124.167969 166.246094 123.03125 165.921875 121.792969 C 165.375 119.765625 165.679688 117.917969 166.503906 116.324219 C 167.042969 115.28125 167.757812 114.4375 168.308594 113.820312 C 168.554688 113.546875 168.8125 113.273438 169.042969 113.015625 C 169.308594 112.734375 169.546875 112.46875 169.796875 112.195312 L 172.976562 115.035156 L 169.796875 112.195312 C 170.128906 111.816406 170.460938 111.417969 170.8125 110.972656 C 171.96875 109.492188 173.097656 107.78125 174.304688 105.941406 C 175.414062 104.257812 176.621094 102.410156 177.851562 100.828125 L 181.214844 103.453125 L 176.988281 103.453125 L 176.988281 102.066406 L 177.800781 100.945312 C 178.605469 99.835938 179.367188 98.808594 180.085938 97.832031 C 181.90625 95.371094 183.449219 93.289062 184.925781 90.964844 Z M 192.128906 95.539062 " clip-rule="nonzero"/></clipPath><clipPath id="eadbb27394"><path d="M 0.363281 0.800781 L 33.910156 0.800781 L 33.910156 44.207031 L 0.363281 44.207031 Z M 0.363281 0.800781 " clip-rule="nonzero"/></clipPath><clipPath id="39937be69b"><path d="M 27.128906 5.539062 C 25.460938 8.15625 23.75 10.476562 21.945312 12.90625 C 21.21875 13.878906 20.484375 14.882812 19.703125 15.949219 L 16.25 13.445312 L 20.515625 13.445312 L 20.515625 14.914062 L 19.609375 16.070312 C 18.636719 17.328125 17.625 18.851562 16.460938 20.621094 C 15.289062 22.398438 13.972656 24.410156 12.5625 26.214844 C 12.125 26.769531 11.664062 27.328125 11.195312 27.867188 C 10.886719 28.214844 10.585938 28.53125 10.328125 28.816406 C 10.089844 29.082031 9.886719 29.292969 9.707031 29.492188 C 9.253906 29.996094 9.132812 30.191406 9.105469 30.242188 C 9.183594 30.097656 9.234375 29.765625 9.183594 29.585938 C 9.191406 29.601562 9.269531 29.867188 9.652344 30.441406 C 11.871094 33.714844 20.191406 36.691406 24.390625 35.296875 C 25.265625 35.007812 25.617188 34.800781 25.699219 34.734375 C 25.445312 34.929688 25.085938 35.65625 25.222656 36.164062 C 25.222656 36.164062 25.222656 36.152344 25.214844 36.144531 C 25.203125 36.136719 25.195312 36.101562 25.179688 36.058594 L 29.105469 34.382812 L 25.179688 36.058594 C 25.28125 36.300781 25.375 36.417969 25.359375 36.402344 C 23.949219 34.445312 15.015625 28.644531 7.636719 31.800781 C 7.574219 31.824219 7.523438 31.851562 7.464844 31.878906 L 3.984375 24.085938 C 4.085938 24.042969 4.179688 24 4.28125 23.957031 C 16.660156 18.671875 29.488281 27.550781 32.277344 31.40625 C 32.519531 31.742188 32.800781 32.183594 33.03125 32.707031 C 33.132812 32.953125 33.226562 33.203125 33.3125 33.460938 C 33.363281 33.621094 33.417969 33.785156 33.460938 33.949219 C 34.332031 37.199219 33.015625 39.824219 30.996094 41.421875 C 29.695312 42.457031 28.15625 43.039062 27.070312 43.398438 L 25.726562 39.351562 L 27.070312 43.398438 C 19.234375 46 6.933594 41.664062 2.570312 35.230469 L 6.105469 32.835938 L 2.570312 35.230469 C 1.851562 34.167969 1.246094 33.03125 0.921875 31.792969 C 0.375 29.765625 0.679688 27.917969 1.503906 26.324219 C 2.042969 25.28125 2.757812 24.4375 3.308594 23.820312 C 3.554688 23.546875 3.8125 23.273438 4.042969 23.015625 C 4.308594 22.734375 4.546875 22.46875 4.796875 22.195312 L 7.976562 25.035156 L 4.796875 22.195312 C 5.128906 21.816406 5.460938 21.417969 5.8125 20.972656 C 6.96875 19.492188 8.097656 17.78125 9.304688 15.941406 C 10.414062 14.257812 11.621094 12.410156 12.851562 10.828125 L 16.214844 13.453125 L 11.988281 13.453125 L 11.988281 12.066406 L 12.800781 10.945312 C 13.605469 9.835938 14.367188 8.808594 15.085938 7.832031 C 16.90625 5.371094 18.449219 3.289062 19.925781 0.964844 Z M 27.128906 5.539062 " clip-rule="nonzero"/></clipPath><clipPath id="fe649a1400"><rect x="0" width="34" y="0" height="45"/></clipPath><clipPath id="365c68a2ac"><rect x="0" width="256" y="0" height="141"/></clipPath></defs><g transform="matrix(1, 0, 0, 1, 30, 100)"><g clip-path="url(#365c68a2ac)"><g clip-path="url(#046711e58a)"><g clip-path="url(#f7e02ebfe5)"><g transform="matrix(1, 0, 0, 1, 0, 6)"><g clip-path="url(#4cd0e0c777)"><g clip-path="url(#f308eab7b6)"><g clip-path="url(#6c2f25f327)"><path fill="#ffffff" d="M 0 0.347656 L 63.933594 0.347656 L 63.933594 83.011719 L 0 83.011719 Z M 0 0.347656 " fill-opacity="1" fill-rule="nonzero"/></g></g></g></g></g></g><g clip-path="url(#06a15f500a)"><g clip-path="url(#66ac0117ce)"><g transform="matrix(1, 0, 0, 1, 71, 6)"><g clip-path="url(#e0c9e2ce4b)"><g clip-path="url(#9b63abd04f)"><g clip-path="url(#b899a20628)"><path fill="#ffffff" d="M 0.335938 0.347656 L 79.207031 0.347656 L 79.207031 82.914062 L 0.335938 82.914062 Z M 0.335938 0.347656 " fill-opacity="1" fill-rule="nonzero"/></g></g></g></g></g></g><g clip-path="url(#f411c6850a)"><g clip-path="url(#71173e55d1)"><g transform="matrix(1, 0, 0, 1, 157, 4)"><g clip-path="url(#8355a262bc)"><g clip-path="url(#2ebbeb647e)"><g clip-path="url(#1f0ee3e4e1)"><rect x="-296.2" width="518.4" fill="#ffffff" y="-213.199996" height="518.399979" fill-opacity="1"/></g></g></g></g></g></g><g clip-path="url(#449de20923)"><g clip-path="url(#063f4ad695)"><g transform="matrix(1, 0, 0, 1, 206, 90)"><g clip-path="url(#7ef1eca0d2)"><g clip-path="url(#515cf8b4f7)"><g clip-path="url(#669ad69335)"><rect x="-345.2" width="518.4" fill="#ffffff" y="-299.199996" height="518.399979" fill-opacity="1"/></g></g></g></g></g></g><g clip-path="url(#669531a30e)"><g clip-path="url(#5d1963eb4a)"><g transform="matrix(1, 0, 0, 1, 165, 90)"><g clip-path="url(#fe649a1400)"><g clip-path="url(#eadbb27394)"><g clip-path="url(#39937be69b)"><rect x="-304.2" width="518.4" fill="#ffffff" y="-299.199996" height="518.399979" fill-opacity="1"/></g></g></g></g></g></g></g></g></svg>